# xmcd
#
# Track frame offsets:
# 150
# 18946
# 38100
# 56096
# 71748
# 91361
# 106129
# 122824
# 143011
# 162020
# 182275
# 199131
# 220220
# 237152
# 251382
# 270849
# 290170
# 306646
#
# Disc length: 4364 seconds
#
#
# Revision: 0
# Processed by: cddbd v1.5.1PL0 Copyright (c) Steve Scherf et al.
# Submitted via: FreeRIP 2.942 
#
DISCID=fe110a12
DTITLE=Diversos - Especial Sertanejo
DYEAR=2000
DGENRE=Sertanejo
TTITLE0=Pare
TTITLE1=Laço Aberto
TTITLE2=Distância
TTITLE3=Vem me Namorar
TTITLE4=Amor Selvagem
TTITLE5=Poeira no Vento
TTITLE6=Incerteza
TTITLE7=E Quando Você Me Deixou
TTITLE8=Será que Foi Saudade
TTITLE9=Como Esquecer Tanto Amor
TTITLE10=Como eu Te Amo
TTITLE11=Doendo de Saudade
TTITLE12=Camas Separadas
TTITLE13=Sua Ida
TTITLE14=A Paixão Acaba Sempre Assim
TTITLE15=Desesperadamente Apaixonado
TTITLE16=Minha História Com Você
TTITLE17=Me Dê Uma Chance
EXTD=
EXTT0=Zeze di Camargo e Luciano
EXTT1=Ataide e Alexandre
EXTT2=Chrystian e Ralf
EXTT3=Rick e Renner
EXTT4=Zeze di Camargo e Luciano
EXTT5=Chrystian e Ralf
EXTT6=Leonardo
EXTT7=Daniel
EXTT8=Zeze di Camargo e Luciano
EXTT9=Rick e Renner
EXTT10=Bruno e Marrone
EXTT11=Daniel
EXTT12=Chrystian e Ralf
EXTT13=Lucas e Luan
EXTT14=Daniel
EXTT15=Guilherme e Santiago
EXTT16=Chrystian e Ralf
EXTT17=André e Adriano
PLAYORDER=
